<?xml version="1.0" encoding="utf-8"?>
<!-- Generator: Adobe Illustrator 21.1.0, SVG Export Plug-In . SVG Version: 6.00 Build 0)  -->
<svg version="1.1" id="Слой_1" xmlns="http://www.w3.org/2000/svg" xmlns:xlink="http://www.w3.org/1999/xlink" x="0px" y="0px"
	 viewBox="0 0 446 396" style="enable-background:new 0 0 446 396;" xml:space="preserve">
<style type="text/css">
	.st0{fill:none;stroke:#CCA50C;stroke-width:15;stroke-miterlimit:10;}
	.st1{fill:none;stroke:#CC9900;stroke-width:15;stroke-miterlimit:10;}
	.st2{fill:none;stroke:#FCC800;stroke-width:15;stroke-miterlimit:10;}
	.st3{fill:#E91F00;}
	.st4{fill:#63AFB7;}
	.st5{fill:#E29088;}
	.st6{fill:#80D7DE;}
</style>
<ellipse class="st0" cx="222.6" cy="202.4" rx="192.5" ry="81.9"/>
<ellipse transform="matrix(0.5 -0.866 0.866 0.5 -64.0127 293.9699)" class="st1" cx="222.6" cy="202.4" rx="192.5" ry="81.9"/>
<ellipse transform="matrix(0.8791 -0.4766 0.4766 0.8791 -69.5571 130.558)" class="st2" cx="222.6" cy="202.4" rx="81.9" ry="192.5"/>
<circle class="st3" cx="230.4" cy="198.1" r="45.9"/>
<circle class="st4" cx="320.2" cy="33.2" r="24.8"/>
<circle class="st4" cx="320.2" cy="366.3" r="24.8"/>
<circle class="st4" cx="131.5" cy="366.3" r="24.8"/>
<circle class="st4" cx="130.8" cy="33.1" r="24.8"/>
<circle class="st4" cx="415.1" cy="198.1" r="24.8"/>
<circle class="st4" cx="30.1" cy="202.4" r="24.8"/>
<g>
	<g>
		<rect x="210.9" y="190.6" class="st5" width="39" height="13.2"/>
		<rect x="223.5" y="179.4" class="st5" width="13.8" height="37.4"/>
	</g>
</g>
<rect x="119.9" y="27.9" class="st6" width="23.2" height="5.5"/>
<rect x="308.6" y="27.9" class="st6" width="23.2" height="5.5"/>
<rect x="403.5" y="194.5" class="st6" width="23.2" height="5.5"/>
<rect x="308.6" y="363.6" class="st6" width="23.2" height="5.5"/>
<rect x="119.2" y="363.6" class="st6" width="23.2" height="5.5"/>
<rect x="18.5" y="201.1" class="st6" width="23.2" height="5.5"/>
</svg>
